<?xml version="1.0" standalone="no"?>
<!DOCTYPE svg PUBLIC "-//W3C//DTD SVG 20010904//EN"
 "http://www.w3.org/TR/2001/REC-SVG-20010904/DTD/svg10.dtd">
<svg version="1.0" xmlns="http://www.w3.org/2000/svg"
 width="512.000000pt" height="512.000000pt" viewBox="0 0 512.000000 512.000000"
 preserveAspectRatio="xMidYMid meet">

<g transform="translate(0.000000,512.000000) scale(0.100000,-0.100000)"
fill="#FFFFFF" stroke="none">
<path d="M2480 4920 l0 -120 80 0 80 0 0 120 0 120 -80 0 -80 0 0 -120z"/>
<path d="M1820 4735 l-54 -55 84 -85 84 -85 58 57 58 57 -82 83 c-46 46 -85
83 -88 83 -3 0 -30 -25 -60 -55z"/>
<path d="M3152 4707 l-82 -83 58 -57 58 -57 84 85 84 85 -54 55 c-30 30 -57
55 -60 55 -3 0 -42 -37 -88 -83z"/>
<path d="M2415 4704 c-214 -48 -400 -194 -496 -389 -49 -100 -69 -175 -76
-290 -13 -208 59 -399 213 -564 39 -42 77 -87 85 -101 9 -17 15 -75 19 -175 5
-132 8 -156 30 -200 31 -63 92 -124 155 -156 47 -22 60 -24 215 -24 155 0 168
2 215 24 63 32 124 93 155 156 22 44 25 69 31 210 4 88 7 161 8 163 0 1 38 42
84 91 45 49 97 114 116 144 248 415 58 941 -394 1093 -102 34 -255 42 -360 18z
m279 -164 c106 -27 168 -63 252 -145 147 -145 205 -351 154 -549 -28 -109 -73
-188 -161 -282 -42 -44 -82 -90 -88 -102 -11 -20 -19 -22 -111 -22 l-100 0 0
94 c0 75 -3 98 -17 114 -10 11 -82 68 -161 127 l-143 106 3 51 c4 76 24 83 83
29 55 -50 100 -71 155 -71 55 0 100 21 155 71 58 54 79 47 83 -29 l3 -51 -64
-48 -65 -49 44 -58 c24 -33 46 -61 49 -64 2 -3 38 20 79 51 93 70 116 113 116
215 0 112 -35 176 -115 213 -79 36 -152 20 -228 -50 -24 -23 -50 -41 -57 -41
-7 0 -33 18 -57 41 -74 68 -144 85 -221 54 -84 -36 -121 -101 -122 -214 0
-119 16 -142 181 -267 l139 -105 0 -59 0 -60 -100 0 c-92 0 -100 2 -111 22 -6
12 -46 58 -88 102 -88 94 -133 173 -161 282 -50 195 7 401 150 544 143 144
335 199 524 150z"/>
<path d="M1520 4000 l0 -80 120 0 120 0 0 80 0 80 -120 0 -120 0 0 -80z"/>
<path d="M3360 4000 l0 -80 120 0 120 0 0 80 0 80 -120 0 -120 0 0 -80z"/>
<path d="M1327 3076 l-649 -123 -259 -259 c-227 -228 -259 -264 -259 -291 0
-61 20 -72 210 -114 96 -21 178 -38 183 -39 4 0 7 -333 7 -739 0 -690 1 -740
18 -761 14 -18 177 -61 997 -267 l980 -245 333 82 c257 64 332 86 328 96 -3 8
-11 43 -17 79 -6 36 -15 65 -20 65 -5 0 -127 -29 -271 -65 -143 -36 -262 -64
-264 -62 -2 2 -3 430 -2 950 l3 947 153 -179 c197 -231 197 -231 239 -231 28
0 1284 267 1346 286 16 5 17 -6 17 -140 l0 -146 80 0 80 0 0 164 0 164 78 17
c272 59 286 63 304 85 10 12 18 36 18 53 0 28 -31 63 -262 293 l-263 261 -635
117 c-349 65 -642 120 -651 122 -13 4 -19 -10 -29 -71 -7 -41 -10 -78 -7 -81
3 -3 188 -40 411 -82 223 -42 404 -78 402 -80 -2 -2 -310 -56 -684 -122 l-680
-118 -682 119 c-376 65 -685 120 -686 122 -2 2 177 37 397 78 220 41 405 77
411 81 12 6 -9 159 -21 157 -3 0 -298 -56 -654 -123z m266 -432 c438 -76 797
-142 797 -147 0 -4 -77 -97 -170 -206 l-171 -199 -37 9 c-20 4 -381 82 -802
174 -421 91 -773 168 -784 171 -15 5 13 38 150 176 145 144 173 168 194 165
14 -3 384 -67 823 -143z m2951 -23 c137 -137 165 -170 150 -175 -11 -3 -372
-82 -804 -176 -432 -94 -792 -173 -801 -175 -11 -4 -68 55 -187 195 -95 110
-172 203 -172 207 0 6 1569 287 1630 292 8 0 91 -75 184 -168z m-2068 -2188
c-2 -2 -397 95 -877 215 l-874 218 -3 673 c-2 637 -1 672 15 667 65 -19 1319
-286 1346 -286 42 0 42 1 239 231 l153 179 3 -947 c1 -520 0 -948 -2 -950z"/>
<path d="M3871 1894 c-16 -21 -21 -41 -21 -88 l0 -62 -52 -22 -51 -22 -48 45
c-39 37 -55 45 -86 45 -34 0 -47 -9 -160 -123 -114 -113 -123 -126 -123 -160
0 -31 8 -47 45 -86 l45 -48 -22 -51 -22 -52 -62 0 c-47 0 -67 -5 -88 -21 l-26
-20 0 -189 0 -189 26 -20 c21 -16 41 -21 88 -21 l62 0 22 -52 22 -51 -45 -48
c-35 -37 -45 -56 -45 -81 0 -41 -8 -30 136 -171 142 -138 150 -140 223 -72 26
25 53 45 59 45 6 0 30 -9 55 -19 l44 -19 6 -68 c4 -58 9 -72 32 -91 25 -22 34
-23 195 -23 161 0 170 1 195 23 23 19 28 33 32 91 l6 68 44 19 c25 10 49 19
55 19 6 0 33 -20 59 -45 74 -69 81 -66 226 78 152 151 156 163 89 235 -25 27
-46 54 -46 60 0 6 9 30 19 55 l19 44 68 6 c58 4 72 9 91 32 22 25 23 34 23
195 0 161 -1 170 -23 195 -19 23 -33 28 -91 32 l-68 6 -19 44 c-10 25 -19 49
-19 55 0 6 20 33 45 59 69 74 66 81 -77 226 -68 68 -133 126 -146 130 -30 7
-61 -7 -110 -51 l-39 -36 -51 22 -52 22 0 62 c0 47 -5 67 -21 88 l-20 26 -189
0 -189 0 -20 -26z m329 -604 c61 -30 97 -65 128 -125 38 -71 38 -179 0 -250
-53 -101 -134 -150 -248 -150 -114 0 -195 49 -248 150 -36 69 -38 179 -3 245
40 76 95 123 181 151 43 14 142 3 190 -21z"/>
</g>
</svg>
